<?xml version="1.0" encoding="UTF-8" standalone="no"?>
<!DOCTYPE svg PUBLIC "-//W3C//DTD SVG 1.1//EN" "http://www.w3.org/Graphics/SVG/1.1/DTD/svg11.dtd">
<svg width="100%" height="100%" viewBox="0 0 2187 1443" version="1.1" xmlns="http://www.w3.org/2000/svg" xmlns:xlink="http://www.w3.org/1999/xlink" xml:space="preserve" xmlns:serif="http://www.serif.com/" style="fill-rule:evenodd;clip-rule:evenodd;stroke-linejoin:round;stroke-miterlimit:2;">
    <g transform="matrix(1,0,0,1,1306.880888,2085.187946)">
        <g transform="matrix(1,0,0,1,-874.635945,0)">
            <rect x="-432.245" y="-2085.188" width="2186.59" height="1442.542" style="fill:none;"/>
            <g transform="matrix(1.008313,0,0,1.008313,-702.655311,-2606.507657)">
                <g transform="matrix(1.567383,0,0,1.567383,555.625552,940.500191)">
                    <path d="M732.574,284.083C724.442,282.501 705.663,279.25 686.631,261.362C666.778,242.703 662.127,218.943 661.997,218.401C659.603,208.438 659.917,208.359 659.917,115.5C659.917,96.04 658.59,88.031 666.493,85.477C668.79,84.735 668.814,84.814 945.5,84.814C965.54,84.814 974.542,82.706 974.545,97.5C974.548,111.58 974.583,267.458 974.534,273.5C974.423,287.385 960.734,284.991 957.5,284.991C740.247,284.984 740.26,285.137 732.574,284.083ZM686.957,206.456C690.096,223.671 696.271,258.985 747.509,266.431C749.955,266.786 769.361,268.634 785.529,264.608C809.552,258.625 811.121,248.838 816.248,251.925C852.8,273.927 939.496,278.764 948.492,222.499C951.826,201.647 939.375,189.776 937.261,187.761C911.154,162.873 849.795,172.083 860.962,147.714C867.052,134.424 902.162,136.334 925.668,149.169C929.708,151.375 929.764,147.92 931.918,142.666C941.618,119.007 942.456,118.756 941.438,117.55C936.396,111.572 879.047,92.775 840.773,113.987C840.474,114.153 837.631,116.447 836.717,115.349C835.653,114.072 838.374,104.654 834.531,104.228C834.257,104.197 794.485,104.217 794.484,104.217C791.556,104.288 792.127,105.787 792.127,123.5L792.127,190.5C792.104,201.194 791.81,231.219 759.481,229.807C727.304,228.402 731.483,192.294 731.483,168.5C731.483,105.385 731.614,104.906 730.523,104.455C729.796,104.155 729.757,104.217 692.5,104.212C688.078,104.212 686.13,103.074 686.13,107.497C686.129,197.291 686.148,197.292 686.957,206.456ZM861.478,201.048C877.995,200.098 877.96,200.308 894.501,199.528C902.974,199.129 888.031,210.883 888.284,213.544C888.418,214.958 901.079,218.514 907.649,221.199C910.975,222.558 906.476,230.437 906.454,230.459C904.306,232.717 886.485,223.239 884.637,223.947C882.998,224.574 884.175,236.232 883.461,238.484C882.373,241.913 877.153,235.839 876.646,235.345C844.967,204.452 844.767,204.472 844.727,203.486C844.639,201.336 849.045,201.683 861.478,201.048Z" style="fill:white;"/>
                </g>
                <g transform="matrix(1.567383,0,0,1.567383,555.625552,940.500191)">
                    <path d="M861.478,201.048C877.995,200.098 877.96,200.308 894.501,199.528C902.974,199.129 888.031,210.883 888.284,213.544C888.418,214.958 901.079,218.514 907.649,221.199C910.975,222.558 906.476,230.437 906.454,230.459C904.306,232.717 886.485,223.239 884.637,223.947C882.998,224.574 884.175,236.232 883.461,238.484C882.373,241.913 877.153,235.839 876.646,235.345C844.967,204.452 844.767,204.472 844.727,203.486C844.639,201.336 849.045,201.683 861.478,201.048Z" style="fill:white;"/>
                </g>
                <g transform="matrix(1.567383,0,0,1.567383,555.625552,940.500191)">
                    <path d="M162.559,93.074C165.213,93.528 177.226,94.766 190.616,100.225C211.437,108.713 222.968,122.139 226.124,125.795C228.379,128.407 226.285,128.995 214.651,139.666C213.062,141.124 195.276,157.437 194.583,157.668C190.115,159.151 186.907,143.452 159.515,137.435C132.616,131.526 95.873,148.668 96.296,190.5C96.843,244.455 152.972,257.099 183.405,232.384C192.99,224.6 192.725,221.592 195.275,223.777C201.377,229.007 222.312,248.198 224.647,250.339C228.924,254.259 226.107,255.333 222.793,258.781C192.221,290.586 152.736,289.842 131.547,288.025C100.573,285.368 41.701,260.002 42.217,188.498C42.59,136.875 84.407,84.8 162.559,93.074Z" style="fill:white;"/>
                </g>
                <g transform="matrix(1.567383,0,0,1.567383,555.625552,940.500191)">
                    <path d="M571.342,188.092C572.556,186.813 573.141,183.393 573.798,181.621C576.064,175.512 587.173,148.316 588.353,145.427C590.834,139.353 590.807,138.515 594.5,138.509C594.887,138.508 640.117,138.51 640.5,138.507C640.877,138.504 644.854,138.47 645.197,138.827C646.184,139.853 645.27,140.011 641.915,145.741C629.434,167.065 609.029,199.5 609.068,201.513C609.096,203.004 618.618,220.435 624.912,233.31C625.948,235.431 631.234,245.376 649.95,282.314C650.285,282.975 651.895,284.956 648.543,284.973C644.619,284.993 644.659,284.881 599.5,284.953C595.633,284.959 594.952,285.056 593.79,281.409C591.531,274.32 589.467,266.882 589.115,265.612C585.049,250.957 584.167,251.289 580.305,236.583C579.239,232.524 576.945,238.109 572.236,246.35C570.464,249.451 570.729,249.621 570.727,280.5C570.727,281.809 571.371,284.848 568.546,284.94C566.19,285.017 531.33,284.844 523.501,285.018C517.473,285.152 519.14,281.745 519.141,278.5C519.156,86.335 519.036,86.272 519.399,85.444C519.851,84.416 520.285,84.552 565.5,84.552C569.19,84.552 570.717,83.772 570.731,87.497C571.063,176.014 570.936,177.706 570.349,185.526C570.159,188.055 571.075,187.694 571.342,188.092Z" style="fill:white;"/>
                </g>
                <g transform="matrix(1.567383,0,0,1.567383,555.625552,940.500191)">
                    <path d="M359.037,210.497C360.032,181.155 374.102,165.751 380.468,159.467C414.422,125.947 490.165,126.015 511.211,174.62C512.373,177.303 510.312,177.087 475.32,195.153C471.579,197.085 471.563,195.186 469.224,191.685C468.066,189.952 460.376,178.446 447.528,177.258C413.522,174.113 408.036,206.987 412.353,222.543C418.635,245.182 436.175,246.089 441.502,246.473C462.547,247.992 471.309,227.666 472.501,227.504C474.024,227.297 494.211,238.322 509.349,245.814C512.407,247.327 511.605,248.208 510.172,251.356C499.048,275.781 467.894,291.495 429.484,286.63C381.768,280.586 367.02,245.722 366.801,245.337C362.802,238.311 358.645,221.841 359.037,210.497Z" style="fill:white;"/>
                </g>
                <g transform="matrix(1.567383,0,0,1.567383,555.625552,940.500191)">
                    <path d="M233.903,256.5C233.918,86.384 233.791,86.306 234.254,85.333C234.688,84.423 235.059,84.552 270.5,84.552C283.213,84.552 285.097,83.679 285.115,87.503C285.114,150.502 285.114,213.501 285.113,276.5C285.113,282.105 286.331,285.107 281.501,284.952C280.755,284.928 235.876,285.006 235.408,284.905C233.623,284.523 233.904,283.701 233.903,256.5Z" style="fill:white;"/>
                </g>
                <g transform="matrix(1.567383,0,0,1.567383,555.625552,940.500191)">
                    <path d="M302.929,281.499C302.93,269.104 302.929,152.517 302.929,152.501C303.025,149.014 304.025,149.133 307.5,149.133C349.657,149.129 349.803,149.077 350.369,149.632C350.955,150.206 350.89,150.369 350.89,253.5C350.89,283.756 351.116,284.414 349.62,284.862C347.995,285.347 309.019,284.984 305.489,284.952C302.037,284.919 303.038,282.083 302.929,281.499Z" style="fill:white;"/>
                </g>
                <g transform="matrix(1.567383,0,0,1.567383,555.625552,940.500191)">
                    <path d="M323.536,134.075C322.517,133.915 321.485,133.851 320.467,133.691C306.964,131.567 300.589,122.424 298.887,116.395C292.739,94.618 312.697,84.729 320.561,83.954C360.793,79.992 364.268,117.665 343.745,129.91C335.802,134.649 329.263,134.167 323.536,134.075Z" style="fill:white;"/>
                </g>
                <g transform="matrix(1.567383,0,0,1.567383,555.625552,940.500191)">
                    <path d="M861.478,201.048C877.995,200.098 877.96,200.308 894.501,199.528C902.974,199.129 888.031,210.883 888.284,213.544C888.418,214.958 901.079,218.514 907.649,221.199C910.975,222.558 906.476,230.437 906.454,230.459C904.306,232.717 886.485,223.239 884.637,223.947C882.998,224.574 884.175,236.232 883.461,238.484C882.373,241.913 877.153,235.839 876.646,235.345C844.967,204.452 844.767,204.472 844.727,203.486C844.639,201.336 849.045,201.683 861.478,201.048Z" style="fill:white;"/>
                </g>
            </g>
        </g>
    </g>
</svg>
