<?xml version="1.0" encoding="UTF-8" standalone="no"?>
<!DOCTYPE svg PUBLIC "-//W3C//DTD SVG 1.1//EN" "http://www.w3.org/Graphics/SVG/1.1/DTD/svg11.dtd">
<svg width="100%" height="100%" viewBox="0 0 306 445" version="1.1" xmlns="http://www.w3.org/2000/svg" xmlns:xlink="http://www.w3.org/1999/xlink" xml:space="preserve" xmlns:serif="http://www.serif.com/" style="fill-rule:evenodd;clip-rule:evenodd;stroke-linejoin:round;stroke-miterlimit:2;">
    <g transform="matrix(1,0,0,1,-1328.731415,-317.922565)">
        <g transform="matrix(1.741646,0,0,1.741646,7299.559986,-427.718381)">
            <path d="M-3288.454,526.527L-3288.454,543.271C-3288.454,547.791 -3288.512,552.584 -3287.623,556.902C-3286.972,560.066 -3285.837,562.982 -3283.2,564.909C-3280.666,566.762 -3276.982,567.656 -3271.791,567.656L-3262.257,567.656C-3258.808,567.656 -3256.007,570.456 -3256.007,573.906C-3256.007,577.355 -3258.808,580.156 -3262.257,580.156L-3271.791,580.156C-3283.567,580.156 -3290.442,576.33 -3294.657,571.115C-3299.903,564.626 -3300.814,555.132 -3300.937,546.031C-3303.225,550.357 -3305.488,554.408 -3307.915,558.036C-3316.387,570.697 -3327.009,581.912 -3342.242,581.912C-3347.368,581.912 -3352.011,580.812 -3356.013,578.618C-3363.466,585.212 -3370.985,592.45 -3377.145,600.769L-3377.146,645.126C-3377.146,645.126 -3376.926,657.99 -3381.486,668.287C-3385.154,676.568 -3391.641,683.145 -3402.293,683.145C-3421.867,683.145 -3425.254,662.682 -3425.254,654.682C-3425.254,637.207 -3419.257,623.851 -3407.015,611.38C-3402.521,606.802 -3398.544,603.398 -3395.387,600.259C-3391.991,596.883 -3389.645,594.072 -3389.645,589.338L-3389.645,576.998C-3394.108,580.334 -3399.263,582.022 -3404.362,581.929C-3419.15,581.661 -3427.718,571.241 -3428.261,557.942C-3428.341,555.993 -3427.767,552.946 -3426.35,549.332C-3423.806,542.839 -3418.52,533.772 -3412.196,526.482C-3405.295,518.528 -3396.963,513.013 -3389.671,513.006C-3385.46,513.002 -3381.492,515.711 -3379.323,521.756C-3375.848,531.437 -3376.694,553.26 -3377.145,564.449L-3377.145,581.56C-3373.248,577.508 -3369.162,573.703 -3365.098,570.082C-3368.621,564.639 -3370.794,557.127 -3370.794,547.299C-3370.794,538.106 -3366.515,528.369 -3360.511,521.594C-3356.14,516.661 -3350.857,513.333 -3345.782,512.351C-3332.077,509.699 -3320.577,519.702 -3320.577,534.011C-3320.577,543.218 -3326.666,552.148 -3336.218,561.243C-3338.943,563.839 -3341.954,566.48 -3345.122,569.209C-3344.195,569.346 -3343.233,569.412 -3342.242,569.412C-3331.259,569.412 -3324.412,560.213 -3318.304,551.085C-3313.614,544.074 -3309.473,535.566 -3304.643,526.527L-3310.855,526.527C-3314.304,526.527 -3317.105,523.726 -3317.105,520.277C-3317.105,516.827 -3314.304,514.027 -3310.855,514.027L-3300.954,514.027L-3300.953,466.143C-3300.953,466.143 -3301.173,453.279 -3296.613,442.981C-3292.945,434.701 -3286.458,428.124 -3275.806,428.124C-3256.233,428.124 -3252.845,448.587 -3252.845,456.587C-3252.845,474.062 -3258.842,487.418 -3271.084,499.889C-3275.557,504.446 -3279.386,509.207 -3282.761,514.027L-3261.403,514.027C-3257.954,514.027 -3255.153,516.827 -3255.153,520.277C-3255.153,523.726 -3257.954,526.527 -3261.403,526.527L-3288.454,526.527ZM-3288.454,500.802C-3285.891,497.518 -3283.094,494.28 -3280.005,491.133C-3270.227,481.172 -3265.345,470.544 -3265.345,456.587C-3265.345,454.609 -3265.57,451.321 -3266.631,448.091C-3267.839,444.41 -3270.293,440.624 -3275.806,440.624C-3280.788,440.624 -3283.468,444.17 -3285.184,448.043C-3288.695,455.972 -3288.456,465.89 -3288.456,465.89L-3288.454,466.017L-3288.454,500.802ZM-3355.517,561.734C-3351.708,558.442 -3348.082,555.28 -3344.838,552.191C-3338.252,545.92 -3333.077,540.359 -3333.077,534.011C-3333.077,528.001 -3337.651,523.51 -3343.408,524.624C-3346.141,525.152 -3348.801,527.227 -3351.155,529.884C-3355.237,534.49 -3358.294,541.049 -3358.294,547.299C-3358.294,553.307 -3357.373,558.118 -3355.517,561.734ZM-3389.645,612.04C-3392.154,614.383 -3395.002,616.986 -3398.095,620.136C-3407.872,630.097 -3412.754,640.725 -3412.754,654.682C-3412.754,656.66 -3412.529,659.948 -3411.469,663.178C-3410.26,666.859 -3407.806,670.645 -3402.293,670.645C-3397.311,670.645 -3394.631,667.099 -3392.916,663.226C-3389.404,655.297 -3389.644,645.379 -3389.644,645.379L-3389.645,645.252L-3389.645,612.04ZM-3389.078,549.906C-3388.976,542.947 -3389.159,535.577 -3390.117,529.962C-3390.36,528.539 -3390.92,526.815 -3391.298,525.742C-3392.586,526.098 -3393.885,526.825 -3395.206,527.711C-3397.812,529.46 -3400.364,531.919 -3402.754,534.673C-3407.346,539.967 -3411.308,546.357 -3413.702,551.538C-3414.886,554.1 -3415.823,556.175 -3415.771,557.432C-3415.503,563.997 -3411.435,569.299 -3404.135,569.431C-3396.783,569.565 -3390.511,562.283 -3389.281,550.948C-3389.242,550.59 -3389.173,550.242 -3389.078,549.906Z" style="fill:url(#_Linear1);"/>
        </g>
    </g>
    <defs>
        <linearGradient id="_Linear1" x1="0" y1="0" x2="1" y2="0" gradientUnits="userSpaceOnUse" gradientTransform="matrix(175.423423,0,0,255.020228,-3428.268302,555.634484)"><stop offset="0" style="stop-color:rgb(0,179,223);stop-opacity:1"/><stop offset="0.44" style="stop-color:rgb(0,190,203);stop-opacity:1"/><stop offset="1" style="stop-color:rgb(0,217,157);stop-opacity:1"/></linearGradient>
    </defs>
</svg>
