<?xml version="1.0" encoding="UTF-8" standalone="no"?>
<!DOCTYPE svg PUBLIC "-//W3C//DTD SVG 1.1//EN" "http://www.w3.org/Graphics/SVG/1.1/DTD/svg11.dtd">
<svg width="100%" height="100%" viewBox="0 0 596 213" version="1.1" xmlns="http://www.w3.org/2000/svg" xmlns:xlink="http://www.w3.org/1999/xlink" xml:space="preserve" xmlns:serif="http://www.serif.com/" style="fill-rule:evenodd;clip-rule:evenodd;stroke-linejoin:round;stroke-miterlimit:2;">
    <g transform="matrix(1,0,0,1,-1997.577183,-440.186827)">
        <g transform="matrix(1.885005,0,0,1.885005,1225.454883,-83.537309)">
            <g>
                <path d="M409.613,331.397L409.613,329.276C409.613,322.382 410.983,316.482 413.723,311.577C416.462,306.672 420.108,302.916 424.66,300.308C429.212,297.701 434.183,296.397 439.574,296.397C445.584,296.397 450.136,297.458 453.23,299.579C456.323,301.7 458.577,303.91 459.991,306.208L462.377,306.208L462.377,298.253L478.816,298.253L478.816,375.676C478.816,380.184 477.491,383.785 474.839,386.481C472.188,389.177 468.652,390.525 464.233,390.525L420.219,390.525L420.219,375.941L458.4,375.941C460.875,375.941 462.112,374.616 462.112,371.964L462.112,354.862L459.726,354.862C458.842,356.276 457.605,357.713 456.014,359.171C454.423,360.629 452.302,361.844 449.65,362.817C446.999,363.789 443.64,364.275 439.574,364.275C434.183,364.275 429.212,362.971 424.66,360.364C420.108,357.757 416.462,354.001 413.723,349.095C410.983,344.19 409.613,338.291 409.613,331.397ZM444.347,349.692C449.473,349.692 453.76,348.057 457.207,344.787C460.654,341.517 462.377,336.921 462.377,330.999L462.377,329.673C462.377,323.663 460.676,319.045 457.273,315.819C453.87,312.593 449.562,310.98 444.347,310.98C439.221,310.98 434.934,312.593 431.488,315.819C428.041,319.045 426.317,323.663 426.317,329.673L426.317,330.999C426.317,336.921 428.041,341.517 431.488,344.787C434.934,348.057 439.221,349.692 444.347,349.692Z" style="fill:url(#_Linear1);"/>
                <path d="M514.479,365.866C507.938,365.866 502.171,364.474 497.178,361.69C492.184,358.906 488.295,354.973 485.511,349.891C482.727,344.809 481.335,338.821 481.335,331.927L481.335,330.336C481.335,323.442 482.705,317.454 485.445,312.372C488.185,307.29 492.029,303.357 496.979,300.573C501.928,297.789 507.673,296.397 514.213,296.397C520.665,296.397 526.278,297.834 531.05,300.706C535.823,303.578 539.535,307.556 542.186,312.638C544.838,317.72 546.164,323.619 546.164,330.336L546.164,336.037L498.305,336.037C498.481,340.544 500.161,344.212 503.342,347.04C506.524,349.869 510.413,351.283 515.009,351.283C519.693,351.283 523.14,350.266 525.35,348.234C527.559,346.201 529.238,343.947 530.387,341.472L544.043,348.631C542.805,350.929 541.015,353.426 538.673,356.122C536.331,358.817 533.216,361.115 529.327,363.016C525.438,364.916 520.489,365.866 514.479,365.866ZM498.437,323.575L529.194,323.575C528.841,319.774 527.316,316.725 524.62,314.427C521.925,312.129 518.412,310.98 514.081,310.98C509.573,310.98 505.994,312.129 503.342,314.427C500.691,316.725 499.056,319.774 498.437,323.575Z" style="fill:url(#_Linear2);"/>
                <path d="M574.932,364.01C570.601,364.01 567.088,362.662 564.393,359.966C561.697,357.271 560.349,353.669 560.349,349.162L560.349,312.041L543.91,312.041L543.91,298.253L560.349,298.253L560.349,277.837L577.053,277.837L577.053,298.253L595.083,298.253L595.083,312.041L577.053,312.041L577.053,346.245C577.053,348.896 578.291,350.222 580.765,350.222L593.492,350.222L593.492,364.01L574.932,364.01Z" style="fill:url(#_Linear3);"/>
            </g>
            <g>
                <path d="M598.488,298.348L636.947,298.348L636.947,303.695L604.116,303.695L604.116,327.427L628.598,327.427L628.598,332.868L604.116,332.868L604.116,358.663L636.947,358.663L636.947,364.01L598.488,364.01L598.488,298.348Z" style="fill:white;"/>
                <path d="M640.23,298.348L677.751,298.348L677.751,303.695L645.858,303.695L645.858,329.303L672.216,329.303L672.216,334.744L645.858,334.744L645.858,364.01L640.23,364.01L640.23,298.348Z" style="fill:white;"/>
                <path d="M678.97,363.822L698.95,330.804L679.345,298.161L685.911,298.161L702.327,326.114L718.742,298.161L725.308,298.161L705.797,330.804L725.683,363.822L719.117,363.822L702.327,335.494L685.63,363.822L678.97,363.822Z" style="fill:white;"/>
            </g>
        </g>
    </g>
    <defs>
        <linearGradient id="_Linear1" x1="0" y1="0" x2="1" y2="0" gradientUnits="userSpaceOnUse" gradientTransform="matrix(185.470503,0,0,112.687582,409.612853,334.180784)"><stop offset="0" style="stop-color:rgb(30,196,255);stop-opacity:1"/><stop offset="0.35" style="stop-color:rgb(0,239,251);stop-opacity:1"/><stop offset="1" style="stop-color:rgb(0,216,154);stop-opacity:1"/></linearGradient>
        <linearGradient id="_Linear2" x1="0" y1="0" x2="1" y2="0" gradientUnits="userSpaceOnUse" gradientTransform="matrix(185.470503,0,0,112.687582,409.612853,334.180784)"><stop offset="0" style="stop-color:rgb(30,196,255);stop-opacity:1"/><stop offset="0.35" style="stop-color:rgb(0,239,251);stop-opacity:1"/><stop offset="1" style="stop-color:rgb(0,216,154);stop-opacity:1"/></linearGradient>
        <linearGradient id="_Linear3" x1="0" y1="0" x2="1" y2="0" gradientUnits="userSpaceOnUse" gradientTransform="matrix(185.470503,0,0,112.687582,409.612853,334.180784)"><stop offset="0" style="stop-color:rgb(30,196,255);stop-opacity:1"/><stop offset="0.35" style="stop-color:rgb(0,239,251);stop-opacity:1"/><stop offset="1" style="stop-color:rgb(0,216,154);stop-opacity:1"/></linearGradient>
    </defs>
</svg>
