<?xml version="1.0" encoding="UTF-8" standalone="no"?>
<!DOCTYPE svg PUBLIC "-//W3C//DTD SVG 1.1//EN" "http://www.w3.org/Graphics/SVG/1.1/DTD/svg11.dtd">
<svg width="100%" height="100%" viewBox="0 0 2187 1443" version="1.1" xmlns="http://www.w3.org/2000/svg" xmlns:xlink="http://www.w3.org/1999/xlink" xml:space="preserve" xmlns:serif="http://www.serif.com/" style="fill-rule:evenodd;clip-rule:evenodd;stroke-linejoin:round;stroke-miterlimit:2;">
    <g transform="matrix(1,0,0,1,-1110.482721,2018.375478)">
        <g transform="matrix(1,0,0,1,1542.727663,66.812468)">
            <rect x="-432.245" y="-2085.188" width="2186.59" height="1442.542" style="fill:none;"/>
            <g transform="matrix(0.686058,0,0,0.686058,-1568.626404,-3208.325538)">
                <g transform="matrix(0.631626,0,0,0.631626,383.33193,2106.853174)">
                    <g transform="matrix(10.839653,0,0,10.839653,2438.876866,85.238871)">
                        <path d="M124.076,48.5C123.969,76.005 124.208,131.229 124.018,132.455C123.72,134.371 121.531,137.79 117.555,133.447C113.999,129.561 114.125,129.457 73.648,84.37C73.43,84.127 71.007,81.428 70.991,81.272C70.906,80.416 70.877,80.131 78.831,73.925C82.312,71.21 121.842,40.367 122.402,40.064C123.203,39.63 123.362,39.498 123.939,40.197C124.204,40.518 124.102,40.566 124.076,48.5Z" style="fill:white;"/>
                    </g>
                    <g transform="matrix(10.839653,0,0,10.839653,2438.876866,85.238871)">
                        <path d="M29.959,100.503C29.962,91.576 29.833,89.442 30.557,88.542C31.221,87.716 41.747,79.577 42.734,78.815C50.346,72.928 50.267,72.873 57.817,66.94C72.888,55.095 72.948,55.203 74.252,54.169C76.112,52.694 114.508,22.75 118.148,20.036C123.412,16.111 124.06,21.379 124.036,22.505C123.85,31.228 124.395,33.921 123.59,35.555C123.34,36.061 123.313,36.067 118.164,40.069C94.785,58.241 94.748,58.19 92.732,59.793C85.777,65.322 75.319,73.363 74.748,73.823C58.382,86.991 58.116,86.609 41.655,99.7C35.008,104.987 33.315,106.516 31.272,104.792C29.734,103.494 30.024,101.57 29.959,100.503Z" style="fill:white;"/>
                    </g>
                    <g transform="matrix(10.839653,0,0,10.839653,2438.876866,85.238871)">
                        <path d="M30.337,84.674C30.279,84.511 29.961,84.553 29.902,84.39C29.661,83.721 29.947,83.696 29.947,75.5C29.947,42.066 30.001,42.043 30.232,41.396C30.42,40.872 31.905,38.74 34.38,40.65C35.291,41.353 36.308,42.903 49.587,57.422C50.327,58.232 54.363,62.802 54.777,63.271C56.533,65.26 55.028,65.931 52.742,67.803C51.776,68.594 45.401,73.815 40.428,77.405C38.902,78.506 34.78,81.833 34.294,82.225C33.202,83.106 33.296,83.184 32.197,84.061C31.777,84.396 31.559,84.468 31.497,84.489C30.923,84.678 30.904,84.487 30.337,84.674Z" style="fill:white;"/>
                    </g>
                </g>
                <g id="Logo-MS-02.png" transform="matrix(6.419882,0,0,6.419882,2113.026862,2263.901831)">
                    <path d="M148.316,39.807C147.74,40.124 146.755,39.86 146.935,41.532C146.969,41.844 147.056,42.148 147.089,42.459C147.237,43.859 147.161,58.382 147.153,58.484C146.613,65.055 139.757,62.881 138.607,61.414C137.644,60.187 137.772,60.012 137.772,37.5C137.772,26.587 137.11,23.566 141.549,22.866C146.811,22.035 149.048,26.957 154.383,33.591C156.877,36.693 168.081,51.416 168.473,51.547C170.037,52.073 170.839,50.548 171.576,49.559C172.207,48.713 188.499,27.779 189.972,25.887C192.49,22.651 196.199,22.263 198.566,23.378C201.099,24.573 200.751,25.444 200.751,46.5C200.751,59.573 201.456,62.563 196.528,62.888C190.632,63.277 191.2,58.169 191.193,57.502C191.061,45.352 191.197,43.703 191.296,42.508C191.412,41.107 191.866,40.699 190.547,40.191C189.943,39.958 189.86,40.025 189.552,40.56C189.2,41.171 189.196,41.144 188.783,41.729C188.091,42.709 185.367,46.564 179.668,53.631C175.181,59.195 172.567,64.79 166.569,62.345C163.863,61.242 159.501,54.302 151.61,44.415C150.454,42.967 148.483,40.021 148.316,39.807Z" style="fill:white;fill-opacity:1;"/>
                    <path d="M292.117,78.991C296.061,82.566 295.538,83.351 295.534,97.5C295.532,102.704 295.42,102.796 293.531,105.528C293.011,106.281 290.855,107.567 290.604,107.717C288.613,108.904 288.473,108.518 281.469,109.319C280.052,109.481 261.627,109.552 260.593,109.233C260.458,109.191 260.379,109.046 260.263,108.966C259.566,108.489 259.133,108.462 259.075,106.516C259.054,105.819 259.056,80.131 259.074,79.485C259.162,76.273 260.278,76.609 263.5,76.574C279.964,76.398 281.857,76.629 283.441,76.822C286.117,77.148 288.389,76.952 290.615,78.259C290.73,78.327 290.726,78.313 292.117,78.991L289.92,82.072C289.737,81.927 289.662,81.673 289.479,81.528C286.702,79.326 280.09,79.69 272.5,79.69C264.12,79.69 263.989,79.555 263.248,80.249C262.72,80.743 262.692,80.752 262.653,81.514C262.59,82.755 262.642,101.74 262.647,103.498C262.648,103.713 262.257,106.153 264.522,106.261C264.772,106.273 279.844,106.269 280.499,106.266C291.405,106.21 291.624,102.98 291.627,97.5C291.635,85.278 291.815,84.117 290.493,82.505C290.341,82.32 290.072,82.257 289.92,82.072L292.117,78.991Z" style="fill:white;fill-opacity:0.99;"/>
                    <path d="M349.016,106.068C347.49,107.058 347.584,107.172 347.382,107.31C347.141,107.473 346.836,107.523 346.59,107.678C346.459,107.761 346.411,107.959 346.265,108.011C346.089,108.075 345.881,107.942 345.702,107.998C345.641,108.018 345.693,108.363 343.534,108.727C338.208,109.628 324.233,110 320.368,107.777C319.203,107.107 316.84,106.608 315.704,101.453C315.535,100.687 315.194,86.197 315.898,83.616C317.61,77.346 322.678,77.333 327.532,76.683C328.817,76.511 337.772,76.484 339.465,76.692C346.324,77.531 346.252,77.936 347.793,79.1C348.971,79.99 349.071,79.894 349.441,80.549C350.292,82.059 350.873,82.16 350.907,86.494C351.026,101.638 350.843,102.177 350.407,103.463C350.331,103.687 350.173,104.151 349.016,106.068L321.061,82.068C320.499,82.772 319.537,82.652 319.436,86.499C319.405,87.697 319.113,98.761 319.598,101.482C319.708,102.101 320.759,105.795 326.523,106.161C329.03,106.321 339.863,106.368 341.392,106.02C348.163,104.482 347.259,101.441 347.259,90.5C347.258,85.984 347.681,83.169 344.707,81.15C343.63,80.419 342.03,79.332 328.505,79.712C327.926,79.728 323.45,79.854 321.489,81.486C321.304,81.64 321.246,81.914 321.061,82.068L349.016,106.068Z" style="fill:white;fill-opacity:0.99;"/>
                    <path d="M246.02,45.076C243.767,46.396 243.632,46.228 232.5,46.228C221.297,46.228 220.573,45.997 220.141,47.342C219.539,49.217 220.063,51.262 220.148,51.591C221.156,55.527 224.421,54.99 246.5,54.995C249.638,54.995 253.671,54.601 254.101,58.524C254.528,62.423 250.007,62.692 249.51,62.722C248.721,62.769 229.041,62.77 227.493,62.72C208.74,62.112 210.473,54.579 210.473,42.5C210.473,33.487 209.786,29.042 214.655,25.735C220.52,21.751 231.878,23.435 246.499,22.966C247.382,22.938 252.377,22.532 252.674,26.488C253.055,31.561 246.148,30.684 243.5,30.684C223.646,30.684 220.511,30.145 220.048,34.445C219.562,38.971 220.817,39.034 222.505,39.099C225.947,39.23 242.586,38.775 244.529,39.416C245.639,39.782 246.424,40.8 246.63,41.457C247.203,43.294 246.835,43.317 246.02,45.076Z" style="fill:white;fill-opacity:1;"/>
                    <path d="M304.993,47.833C307.709,43.996 307.661,43.973 319.886,25.774C322.484,21.906 327.195,22.251 329.457,24.542C330.636,25.735 350.828,55.876 351.24,56.637C354.174,62.053 346.465,66.359 341.945,59.209C333.759,46.259 333.64,46.348 332.932,45.221C332.404,44.379 326.439,34.88 326.263,34.732C326.158,34.645 325.477,34.074 324.564,34.585C324.448,34.651 321.454,39.351 321.401,39.435C316.508,47.217 316.387,47.123 315.963,47.799C315.339,48.796 310.281,56.87 308.069,60.194C305.481,64.082 300.467,63.011 299.452,61.544C297.329,58.475 298.57,57.665 304.993,47.833Z" style="fill:white;fill-opacity:1;"/>
                    <path d="M301.023,29.152C298.628,30.793 298.481,30.684 292.5,30.684C286.827,30.684 284.934,30.241 284.701,32.521C284.478,34.718 285.11,58.001 284.322,60.435C283.241,63.778 276.08,64.15 275.25,59.542C274.943,57.839 275.359,32.711 275.003,31.679C274.486,30.18 270.22,30.788 263.498,30.68C262.56,30.665 258.727,30.843 258.191,27.552C257.483,23.209 261.977,23.07 262.474,23.054C266.973,22.915 279.516,23.197 295.499,22.966C295.576,22.965 300.533,22.443 301.489,25.504C302.087,27.417 301.101,28.946 301.023,29.152Z" style="fill:white;fill-opacity:1;"/>
                    <path d="M139.893,78.98C141.26,78.285 141.255,78.297 141.369,78.229C141.942,77.893 143.5,76.978 149.507,76.602C150.613,76.533 166.056,76.559 166.492,76.588C169.986,76.82 168.46,79.18 168.319,79.294C167.836,79.684 165.729,79.689 165.501,79.689C149.861,79.723 144.773,79.261 142.554,81.553C142.222,81.896 140.913,83.25 141.679,87.463C142.737,93.275 160.158,89.837 165.436,91.701C168.678,92.846 171.054,94.1 171.337,98.512C171.84,106.379 168.361,107.346 166.36,108.119C163.303,109.299 154.173,109.43 153.5,109.431C139.783,109.431 137.445,109.766 137.661,107.541C137.776,106.352 140.244,106.282 140.492,106.274C152.197,105.938 164.944,107.671 167.097,103.328C167.222,103.076 168.177,97.135 166.279,95.764C161.606,92.388 147.939,94.784 143.566,93.287C140.016,92.073 137.909,90.739 137.657,86.49C137.409,82.285 138.121,80.733 139.893,78.98Z" style="fill:white;fill-opacity:0.99;"/>
                    <path d="M220.066,103.941C220.25,104.091 220.309,104.36 220.492,104.51C222.459,106.121 226.926,106.235 227.504,106.25C240.716,106.588 242.228,105.797 243.354,105.208C244.316,104.704 245.884,103.058 246.16,102.366C247.173,99.819 246.256,78.805 246.782,77.634C246.862,77.455 247.095,77.394 247.226,77.249C247.749,76.669 247.719,76.54 248.501,76.53C249.291,76.521 249.282,76.608 249.819,77.164C250.664,78.04 250.534,78.201 250.534,89.5C250.534,102.227 250.752,102.463 248.991,104.836C246.762,107.837 245.478,109.582 229.501,109.427C228.607,109.419 222.765,108.913 221.476,108.612C215.376,107.192 214.635,102.285 214.516,101.498C214.35,100.394 214.091,79.203 214.645,77.579C215.053,76.385 217.556,75.624 217.923,78.43C218.103,79.807 217.712,98.469 218.155,100.578C218.702,103.184 220.055,103.928 220.066,103.941Z" style="fill:white;fill-opacity:0.99;"/>
                    <path d="M193.024,109.027C191.525,109.433 191.299,109.9 190.233,108.763C189.602,108.09 189.579,108.028 189.576,105.5C189.543,81.523 189.771,80.478 189.09,79.952C188.21,79.272 176.765,80.176 175.67,79.303C175.248,78.966 174.353,76.728 177.508,76.588C178.463,76.546 201.421,76.563 203.5,76.564C203.955,76.565 207.192,76.381 207.617,77.428C208.349,79.234 206.719,79.569 206.528,79.609C205.617,79.796 195.095,79.577 194.592,79.776C194.42,79.844 194.375,80.08 194.231,80.196C193.718,80.612 193.529,80.545 193.48,81.498C193.479,81.513 193.479,86.473 193.479,97.5C193.479,106.993 193.556,107.009 193.024,109.027Z" style="fill:white;fill-opacity:1;"/>
                    <path d="M307.025,109.027C306.838,109.078 305.111,109.546 304.618,109.273C304.429,109.168 304.39,108.902 304.244,108.743C303.654,108.098 303.652,108.06 303.629,106.497C303.626,106.236 303.626,79.883 303.63,79.503C303.645,77.879 303.689,77.849 304.228,77.25C304.75,76.67 304.717,76.537 305.501,76.528C306.281,76.519 306.271,76.61 306.812,77.187C307.604,78.033 307.479,78.179 307.479,88.5C307.479,107.039 307.543,107.068 307.025,109.027Z" style="fill:white;fill-opacity:1;"/>
                </g>
            </g>
        </g>
    </g>
</svg>
