<?xml version="1.0" encoding="UTF-8" standalone="no"?>
<!DOCTYPE svg PUBLIC "-//W3C//DTD SVG 1.1//EN" "http://www.w3.org/Graphics/SVG/1.1/DTD/svg11.dtd">
<svg width="100%" height="100%" viewBox="0 0 2187 1443" version="1.1" xmlns="http://www.w3.org/2000/svg" xmlns:xlink="http://www.w3.org/1999/xlink" xml:space="preserve" xmlns:serif="http://www.serif.com/" style="fill-rule:evenodd;clip-rule:evenodd;stroke-linejoin:round;stroke-miterlimit:2;">
    <g transform="matrix(1,0,0,1,-4007.747253,2085.187946)">
        <g transform="matrix(1,0,0,1,4439.992195,0)">
            <rect x="-432.245" y="-2085.188" width="2186.59" height="1442.542" style="fill:none;"/>
            <g transform="matrix(0.621083,0,0,0.621083,-3093.320488,-553.798046)">
                <g transform="matrix(4.166667,0,0,4.166667,5494.038396,-2708.986753)">
                    <path d="M83.979,318.604C83.895,318.595 83.802,318.595 83.718,318.595C83.643,318.595 83.569,318.595 83.494,318.604C73.953,318.716 66.26,326.493 66.26,336.062C66.26,345.631 73.934,353.38 83.456,353.51C83.54,353.519 83.633,353.519 83.717,353.519C83.801,353.519 83.894,353.519 83.978,353.51C93.5,353.379 101.174,345.621 101.174,336.062C101.174,326.503 93.5,318.735 83.978,318.604L83.979,318.604ZM87.844,344.305C87.844,346.583 85.996,348.422 83.718,348.422C81.44,348.422 79.601,346.583 79.601,344.305L79.601,327.809C79.601,325.568 81.375,323.748 83.606,323.692C83.643,323.683 83.681,323.683 83.718,323.683C83.755,323.683 83.793,323.683 83.83,323.692C86.061,323.748 87.844,325.568 87.844,327.809L87.844,344.305Z" style="fill:white;fill-rule:nonzero;"/>
                    <path d="M83.83,323.692L83.606,323.692C83.643,323.683 83.681,323.683 83.718,323.683C83.755,323.683 83.793,323.683 83.83,323.692Z" style="fill:white;fill-rule:nonzero;"/>
                    <path d="M83.83,323.692L83.606,323.692C83.643,323.683 83.681,323.683 83.718,323.683C83.755,323.683 83.793,323.683 83.83,323.692Z" style="fill:white;fill-rule:nonzero;"/>
                    <path d="M335.517,321.144C335.517,321.863 335.218,322.507 334.742,322.964C334.723,322.992 334.705,323.011 334.686,323.02L334.63,323.076C334.621,323.095 334.611,323.104 334.593,323.113C334.154,323.468 333.594,323.692 332.978,323.692L327.862,323.692L327.862,331.534C327.853,331.525 327.843,331.525 327.834,331.525L327.834,344.38C327.834,346.555 328.235,348.646 328.964,350.57C329.356,351.606 329.842,352.596 330.42,353.529C328.889,353.398 327.414,353.072 326.023,352.558C319.432,350.177 314.689,343.932 314.512,336.566C314.503,336.426 314.503,336.277 314.503,336.137L314.503,323.692L312.01,323.692C310.6,323.692 309.461,322.553 309.461,321.143C309.461,320.293 309.881,319.537 310.516,319.08C310.936,318.772 311.459,318.595 312.01,318.595L314.521,318.595C321.028,317.036 326.116,311.836 327.507,305.264C327.666,304.536 327.778,303.78 327.834,303.014C327.843,303.089 327.853,303.163 327.843,303.238C327.852,303.294 327.852,303.35 327.852,303.415C327.861,303.471 327.861,303.536 327.861,303.592L327.861,318.595L332.977,318.595C334.377,318.595 335.516,319.734 335.516,321.144L335.517,321.144Z" style="fill:white;fill-rule:nonzero;"/>
                    <path d="M65.07,344.642L65.014,344.698C65.005,344.717 64.995,344.726 64.977,344.735C64.538,345.09 63.978,345.314 63.362,345.314C62.036,345.314 60.953,344.315 60.823,343.027L60.823,325.214C60.823,322.227 58.853,319.697 56.127,318.847C56.08,318.828 56.024,318.819 55.978,318.81C55.343,318.679 54.68,318.614 54.008,318.595C53.765,318.595 53.523,318.604 53.28,318.614C52.991,318.633 52.711,318.651 52.43,318.689C52.421,318.68 52.402,318.689 52.393,318.689C46.81,319.249 42.002,322.451 39.239,327.026L39.239,325.215C39.239,322.228 37.269,319.698 34.543,318.848C34.496,318.829 34.44,318.82 34.394,318.811C33.759,318.68 33.096,318.615 32.424,318.596C32.181,318.596 31.939,318.605 31.696,318.615C31.407,318.634 31.126,318.652 30.846,318.69C30.837,318.681 30.818,318.69 30.809,318.69C25.226,319.25 20.418,322.452 17.655,327.027L17.655,325.216C17.655,322.229 15.685,319.699 12.959,318.849C12.912,318.83 12.856,318.821 12.81,318.812C12.11,318.672 11.382,318.597 10.635,318.597C10.486,318.597 10.336,318.597 10.187,318.606C5.043,318.811 0.833,322.62 0.002,327.578C0.021,327.55 0.039,327.531 0.058,327.522L0.114,327.466C0.123,327.447 0.133,327.438 0.151,327.429C0.59,327.074 1.15,326.85 1.766,326.85C3.176,326.85 4.315,327.989 4.315,329.399L4.315,346.847C4.315,350.535 7.302,353.522 10.981,353.522C14.66,353.522 17.656,350.535 17.656,346.847L17.656,329.716C17.656,327.438 19.505,325.59 21.782,325.59C21.894,325.59 22.006,325.59 22.118,325.609C23.742,325.74 25.105,326.823 25.647,328.298C25.806,328.634 25.899,329.008 25.899,329.4L25.899,346.848C25.899,350.526 28.877,353.514 32.546,353.523L32.593,353.523C36.271,353.504 39.24,350.526 39.24,346.848L39.24,329.717C39.24,327.439 41.089,325.591 43.366,325.591C43.478,325.591 43.59,325.591 43.702,325.61C45.326,325.741 46.689,326.824 47.231,328.299C47.39,328.635 47.483,329.009 47.483,329.401L47.483,340.24L47.474,340.24L47.474,346.952C47.474,347.111 47.502,347.26 47.511,347.409C47.52,347.465 47.52,347.53 47.53,347.586C47.782,350.284 49.64,352.534 52.17,353.318C52.217,353.337 52.273,353.346 52.319,353.355C53.019,353.495 53.747,353.57 54.494,353.57C54.643,353.57 54.793,353.57 54.942,353.561C60.086,353.356 64.296,349.547 65.127,344.589C65.108,344.617 65.09,344.636 65.071,344.645L65.07,344.642Z" style="fill:white;fill-rule:nonzero;"/>
                    <path d="M408.07,344.642L408.014,344.698C408.005,344.717 407.995,344.726 407.977,344.735C407.538,345.09 406.978,345.314 406.362,345.314C405.036,345.314 403.953,344.315 403.823,343.027L403.823,325.214C403.823,322.227 401.853,319.697 399.127,318.847C399.08,318.828 399.024,318.819 398.978,318.81C398.343,318.679 397.68,318.614 397.008,318.595C396.765,318.595 396.523,318.604 396.28,318.614C395.991,318.633 395.711,318.651 395.43,318.689C395.421,318.68 395.402,318.689 395.393,318.689C389.81,319.249 385.002,322.451 382.239,327.026L382.239,325.215C382.239,322.228 380.269,319.698 377.543,318.848C377.496,318.829 377.44,318.82 377.394,318.811C376.759,318.68 376.096,318.615 375.424,318.596C375.181,318.596 374.939,318.605 374.696,318.615C374.407,318.634 374.126,318.652 373.846,318.69C373.837,318.681 373.818,318.69 373.809,318.69C368.226,319.25 363.418,322.452 360.655,327.027L360.655,325.216C360.655,322.229 358.685,319.699 355.959,318.849C355.912,318.83 355.856,318.821 355.81,318.812C355.11,318.672 354.382,318.597 353.635,318.597C353.486,318.597 353.336,318.597 353.187,318.606C348.043,318.811 343.833,322.62 343.002,327.578C343.021,327.55 343.039,327.531 343.058,327.522L343.114,327.466C343.123,327.447 343.133,327.438 343.151,327.429C343.59,327.074 344.15,326.85 344.766,326.85C346.176,326.85 347.315,327.989 347.315,329.399L347.315,346.847C347.315,350.535 350.302,353.522 353.981,353.522C357.66,353.522 360.656,350.535 360.656,346.847L360.656,329.716C360.656,327.438 362.505,325.59 364.782,325.59C364.894,325.59 365.006,325.59 365.118,325.609C366.742,325.74 368.105,326.823 368.647,328.298C368.806,328.634 368.899,329.008 368.899,329.4L368.899,346.848C368.899,350.526 371.877,353.514 375.546,353.523L375.593,353.523C379.271,353.504 382.24,350.526 382.24,346.848L382.24,329.717C382.24,327.439 384.089,325.591 386.366,325.591C386.478,325.591 386.59,325.591 386.702,325.61C388.326,325.741 389.689,326.824 390.231,328.299C390.39,328.635 390.483,329.009 390.483,329.401L390.483,340.24L390.474,340.24L390.474,346.952C390.474,347.111 390.502,347.26 390.511,347.409C390.52,347.465 390.52,347.53 390.53,347.586C390.782,350.284 392.64,352.534 395.17,353.318C395.217,353.337 395.273,353.346 395.319,353.355C396.019,353.495 396.747,353.57 397.494,353.57C397.643,353.57 397.793,353.57 397.942,353.561C403.086,353.356 407.296,349.547 408.127,344.589C408.108,344.617 408.09,344.636 408.071,344.645L408.07,344.642Z" style="fill:white;fill-rule:nonzero;"/>
                    <path d="M184.413,344.642L184.357,344.698C184.348,344.717 184.338,344.726 184.32,344.735C183.881,345.09 183.321,345.314 182.705,345.314C181.379,345.314 180.296,344.315 180.166,343.027L180.166,325.214C180.166,322.227 178.196,319.697 175.47,318.847C175.423,318.828 175.367,318.819 175.321,318.81C174.686,318.679 174.023,318.614 173.351,318.595C173.108,318.595 172.866,318.604 172.623,318.614C172.334,318.633 172.054,318.651 171.773,318.689C171.764,318.68 171.745,318.689 171.736,318.689C166.153,319.249 161.345,322.451 158.582,327.026L158.582,325.215C158.582,322.228 156.612,319.698 153.886,318.848C153.839,318.829 153.783,318.82 153.737,318.811C153.037,318.671 152.309,318.596 151.562,318.596C151.413,318.596 151.263,318.596 151.114,318.605C145.97,318.81 141.76,322.619 140.929,327.577C140.948,327.549 140.966,327.53 140.985,327.521L141.041,327.465C141.05,327.446 141.06,327.437 141.078,327.428C141.517,327.073 142.077,326.849 142.693,326.849C144.103,326.849 145.242,327.988 145.242,329.398L145.242,346.846C145.242,350.534 148.229,353.521 151.908,353.521C155.587,353.521 158.583,350.534 158.583,346.846L158.583,329.715C158.583,327.437 160.431,325.589 162.709,325.589C162.821,325.589 162.933,325.589 163.045,325.608C164.669,325.739 166.032,326.822 166.574,328.297C166.733,328.633 166.826,329.007 166.826,329.399L166.826,340.238L166.817,340.238L166.817,346.95C166.817,347.107 166.844,347.256 166.855,347.41C166.86,347.467 166.863,347.525 166.869,347.582C167.126,350.287 168.983,352.529 171.513,353.317C171.56,353.336 171.616,353.345 171.662,353.354C172.362,353.494 173.09,353.569 173.837,353.569C173.986,353.569 174.136,353.569 174.285,353.56C179.429,353.355 183.639,349.546 184.47,344.588C184.451,344.616 184.433,344.635 184.414,344.644L184.413,344.642Z" style="fill:white;fill-rule:nonzero;"/>
                    <path d="M471.147,344.642L471.091,344.698C471.082,344.717 471.072,344.726 471.054,344.735C470.615,345.09 470.055,345.314 469.439,345.314C468.113,345.314 467.03,344.315 466.9,343.027L466.9,325.214C466.9,322.227 464.93,319.697 462.204,318.847C462.157,318.828 462.101,318.819 462.055,318.81C461.42,318.679 460.757,318.614 460.085,318.595C459.842,318.595 459.6,318.604 459.357,318.614C459.068,318.633 458.788,318.651 458.507,318.689C458.498,318.68 458.479,318.689 458.47,318.689C452.887,319.249 448.079,322.451 445.316,327.026L445.316,325.215C445.316,322.228 443.346,319.698 440.62,318.848C440.573,318.829 440.517,318.82 440.471,318.811C439.771,318.671 439.043,318.596 438.296,318.596C438.147,318.596 437.997,318.596 437.848,318.605C432.704,318.81 428.494,322.619 427.663,327.577C427.682,327.549 427.7,327.53 427.719,327.521L427.775,327.465C427.784,327.446 427.794,327.437 427.812,327.428C428.251,327.073 428.811,326.849 429.427,326.849C430.837,326.849 431.976,327.988 431.976,329.398L431.976,346.846C431.976,350.534 434.963,353.521 438.642,353.521C442.321,353.521 445.317,350.534 445.317,346.846L445.317,329.715C445.317,327.437 447.165,325.589 449.443,325.589C449.555,325.589 449.667,325.589 449.779,325.608C451.403,325.739 452.766,326.822 453.308,328.297C453.467,328.633 453.56,329.007 453.56,329.399L453.56,340.238L453.551,340.238L453.551,346.95C453.551,347.107 453.578,347.256 453.589,347.41C453.594,347.467 453.597,347.525 453.603,347.582C453.86,350.287 455.717,352.529 458.247,353.317C458.294,353.336 458.35,353.345 458.396,353.354C459.096,353.494 459.824,353.569 460.571,353.569C460.72,353.569 460.87,353.569 461.019,353.56C466.163,353.355 470.373,349.546 471.204,344.588C471.185,344.616 471.167,344.635 471.148,344.644L471.147,344.642Z" style="fill:white;fill-rule:nonzero;"/>
                    <g>
                        <circle cx="224.247" cy="310.295" r="6.669" style="fill:white;"/>
                        <path d="M230.916,325.218L230.916,346.849C230.916,350.537 227.929,353.524 224.241,353.524C220.553,353.524 217.575,350.537 217.575,346.849L217.575,329.401C217.575,327.991 216.436,326.852 215.026,326.852C214.41,326.852 213.85,327.076 213.411,327.431C213.392,327.44 213.383,327.45 213.374,327.468L213.318,327.524C213.299,327.533 213.281,327.552 213.262,327.58C214.093,322.623 218.303,318.814 223.447,318.608C223.596,318.599 223.746,318.599 223.895,318.599C224.642,318.599 225.37,318.674 226.07,318.814C226.117,318.823 226.173,318.833 226.219,318.851C228.945,319.701 230.915,322.231 230.915,325.218L230.916,325.218Z" style="fill:white;fill-rule:nonzero;"/>
                    </g>
                    <g>
                        <circle cx="417.848" cy="310.295" r="6.669" style="fill:white;"/>
                        <path d="M424.517,325.218L424.517,346.849C424.517,350.537 421.53,353.524 417.842,353.524C414.154,353.524 411.176,350.537 411.176,346.849L411.176,329.401C411.176,327.991 410.037,326.852 408.627,326.852C408.011,326.852 407.451,327.076 407.012,327.431C406.993,327.44 406.984,327.45 406.975,327.468L406.919,327.524C406.9,327.533 406.882,327.552 406.863,327.58C407.694,322.623 411.904,318.814 417.048,318.608C417.197,318.599 417.347,318.599 417.496,318.599C418.243,318.599 418.971,318.674 419.671,318.814C419.718,318.823 419.774,318.833 419.82,318.851C422.546,319.701 424.516,322.231 424.516,325.218L424.517,325.218Z" style="fill:white;fill-rule:nonzero;"/>
                    </g>
                    <path d="M83.83,323.692L83.606,323.692C83.643,323.683 83.681,323.683 83.718,323.683C83.755,323.683 83.793,323.683 83.83,323.692Z" style="fill:white;fill-rule:nonzero;"/>
                    <path d="M209.312,303.536L209.312,346.848C209.312,350.536 206.325,353.523 202.637,353.523C198.949,353.523 195.971,350.536 195.971,346.848L195.971,307.718C195.971,306.308 194.832,305.169 193.422,305.169C192.806,305.169 192.246,305.393 191.807,305.748C191.788,305.757 191.779,305.767 191.77,305.785L191.714,305.841C191.695,305.85 191.677,305.869 191.658,305.897C192.489,300.94 196.699,297.131 201.843,296.925C201.992,296.916 202.142,296.916 202.291,296.916C203.038,296.916 203.766,296.991 204.466,297.131C204.513,297.14 204.569,297.15 204.615,297.168C207.341,298.018 209.311,300.548 209.311,303.535L209.312,303.536Z" style="fill:white;fill-rule:nonzero;"/>
                    <path d="M121.135,323.683C121.098,323.683 121.06,323.683 121.023,323.692L121.247,323.692C121.21,323.683 121.172,323.683 121.135,323.683Z" style="fill:white;fill-rule:nonzero;"/>
                    <path d="M121.397,318.604C121.313,318.595 121.22,318.595 121.136,318.595C121.061,318.595 120.987,318.595 120.912,318.604C111.371,318.716 103.678,326.493 103.678,336.062C103.678,345.631 111.352,353.38 120.874,353.51C120.958,353.519 121.051,353.519 121.135,353.519C121.219,353.519 121.312,353.519 121.396,353.51C130.918,353.379 138.602,345.621 138.602,336.062C138.602,326.503 130.919,318.735 121.396,318.604L121.397,318.604ZM125.262,344.305C125.262,346.583 123.414,348.422 121.136,348.422C118.858,348.422 117.019,346.583 117.019,344.305L117.019,327.809C117.019,325.568 118.802,323.748 121.024,323.692C121.061,323.683 121.099,323.683 121.136,323.683C121.173,323.683 121.211,323.683 121.248,323.692C123.479,323.748 125.262,325.568 125.262,327.809L125.262,344.305Z" style="fill:white;fill-rule:nonzero;"/>
                    <path d="M121.247,323.692L121.023,323.692C121.06,323.683 121.098,323.683 121.135,323.683C121.172,323.683 121.21,323.683 121.247,323.692Z" style="fill:white;fill-rule:nonzero;"/>
                    <path d="M121.247,323.692L121.023,323.692C121.06,323.683 121.098,323.683 121.135,323.683C121.172,323.683 121.21,323.683 121.247,323.692Z" style="fill:white;fill-rule:nonzero;"/>
                    <path d="M252.004,318.604C251.92,318.595 251.827,318.595 251.743,318.595C251.668,318.595 251.594,318.595 251.519,318.604C241.978,318.716 234.285,326.493 234.285,336.062C234.285,340.132 235.676,343.885 238.029,346.854C238.468,347.423 238.944,347.956 239.457,348.45C242.378,351.362 246.308,353.229 250.694,353.491C250.946,353.501 251.358,353.51 252.004,353.51C253.339,353.501 254.627,353.333 255.869,353.025L255.869,365.88C255.869,369.232 254.926,372.368 253.283,375.029C262.208,374.254 269.2,366.758 269.2,357.637L269.2,336.062C269.2,326.502 261.526,318.735 252.004,318.604ZM255.869,344.305C255.869,346.583 254.021,348.422 251.743,348.422C249.465,348.422 247.626,346.583 247.626,344.305L247.626,327.809C247.626,325.568 249.4,323.748 251.631,323.692C251.668,323.683 251.706,323.683 251.743,323.683C251.78,323.683 251.818,323.683 251.855,323.692C254.086,323.748 255.869,325.568 255.869,327.809L255.869,344.305Z" style="fill:white;fill-rule:nonzero;"/>
                    <path d="M304.167,325.223C303.738,324.672 303.271,324.149 302.767,323.655C299.854,320.761 295.915,318.894 291.545,318.632C291.302,318.623 291.05,318.613 290.807,318.613L290.172,318.613C288.865,318.632 287.586,318.8 286.363,319.098L286.363,306.233C286.363,302.835 287.334,299.661 289.014,296.981C280.061,297.728 273.031,305.224 273.031,314.373L273.031,346.852C273.031,350.53 276.009,353.518 279.697,353.518C281.209,353.518 282.6,353.014 283.721,352.155C285.327,350.951 286.363,349.018 286.363,346.852L286.363,327.816C286.363,325.538 288.212,323.69 290.489,323.69C292.766,323.69 294.606,325.538 294.606,327.816L294.606,346.852C294.606,349.018 295.642,350.941 297.248,352.155C298.368,353.014 299.759,353.518 301.281,353.518C304.959,353.518 307.947,350.531 307.947,346.852L307.947,336.06C307.947,331.962 306.537,328.19 304.166,325.221L304.167,325.223Z" style="fill:white;fill-rule:nonzero;"/>
                    <path d="M541.915,321.144C541.915,322.535 540.804,323.665 539.422,323.693L539.366,323.693C539.273,323.693 539.17,323.684 539.077,323.684C538.311,323.684 537.555,323.731 536.808,323.843C533.961,324.198 531.337,325.253 529.097,326.821L529.097,346.846C529.097,347.705 528.938,348.526 528.64,349.273C528.099,350.655 527.128,351.803 525.877,352.55C524.869,353.166 523.692,353.521 522.423,353.521C518.745,353.521 515.757,350.534 515.757,346.846L515.757,329.398C515.757,327.988 514.618,326.849 513.208,326.849C512.592,326.849 512.032,327.073 511.593,327.428C511.574,327.437 511.565,327.447 511.556,327.465L511.5,327.521C511.481,327.53 511.463,327.549 511.444,327.577C512.275,322.62 516.485,318.811 521.629,318.605C521.778,318.596 521.928,318.596 522.077,318.596C522.824,318.596 523.552,318.671 524.252,318.811C524.299,318.82 524.355,318.83 524.401,318.848C526.361,319.455 527.93,320.939 528.649,322.825C531.44,320.407 535.007,318.876 538.918,318.633L538.937,318.633C539.161,318.614 539.385,318.605 539.609,318.605L539.628,318.605C540.057,318.652 540.468,318.81 540.814,319.044C541.477,319.501 541.916,320.276 541.916,321.145L541.915,321.144Z" style="fill:white;fill-rule:nonzero;"/>
                    <path d="M510.607,344.595L510.551,344.651C510.542,344.67 510.532,344.679 510.514,344.688C510.075,345.043 509.515,345.267 508.899,345.267C507.489,345.267 506.35,344.128 506.35,342.718L506.35,325.27C506.35,321.582 503.363,318.595 499.684,318.595C498.162,318.595 496.771,319.099 495.651,319.958C493.644,319.108 491.45,318.632 489.144,318.604C489.06,318.604 488.976,318.595 488.892,318.595L488.883,318.595C488.808,318.595 488.734,318.595 488.659,318.604C479.118,318.725 471.425,326.493 471.425,336.062C471.425,345.706 479.248,353.52 488.892,353.52C491.273,353.52 493.541,353.044 495.614,352.176C496.23,352.661 496.94,353.035 497.705,353.268C497.752,353.287 497.808,353.296 497.854,353.305C498.554,353.445 499.282,353.52 500.029,353.52C500.178,353.52 500.328,353.52 500.477,353.511C505.621,353.306 509.831,349.497 510.662,344.539C510.643,344.567 510.625,344.586 510.606,344.595L510.607,344.595ZM493.009,344.306C493.009,346.584 491.161,348.423 488.892,348.423C486.623,348.423 484.766,346.584 484.766,344.306L484.766,327.81C484.766,325.569 486.549,323.749 488.771,323.693C488.808,323.684 488.855,323.684 488.892,323.684C488.929,323.684 488.967,323.684 489.004,323.693C491.226,323.749 493.009,325.569 493.009,327.81L493.009,344.306Z" style="fill:white;fill-rule:nonzero;"/>
                </g>
                <g transform="matrix(4.166667,0,0,4.166667,3708.323341,-1803.981504)">
                    <g>
                        <path d="M390.857,119.916C390.857,154.168 376.493,185.068 353.462,206.914C350.327,209.891 347.026,212.698 343.583,215.324C340.847,217.413 338.016,219.383 335.102,221.231C330.024,224.453 324.69,227.304 319.135,229.744C304.392,236.219 288.093,239.816 270.957,239.816C204.739,239.816 151.058,186.134 151.058,119.917C151.058,53.7 204.74,0.016 270.957,0.016C283.011,0.016 294.651,1.793 305.623,5.105C305.643,5.109 305.666,5.117 305.686,5.125C305.931,5.196 306.172,5.271 306.413,5.346L306.417,5.346C309.813,6.503 312.45,9.306 313.374,12.804C313.607,13.688 313.733,14.62 313.733,15.58C313.733,21.55 308.892,26.391 302.918,26.391C301.947,26.391 301.007,26.265 300.115,26.024C300.103,26.02 300.095,26.02 300.083,26.012C300.059,26.008 300.032,26 300.008,25.992C300,25.992 299.996,25.992 299.988,25.984C299.834,25.937 299.676,25.889 299.518,25.842C299.494,25.838 299.467,25.83 299.443,25.818C297.872,25.34 296.28,24.906 294.685,24.507C286.982,22.596 279.046,21.633 270.955,21.633C257.677,21.633 244.809,24.231 232.707,29.348C221.004,34.299 210.494,41.386 201.46,50.42C192.426,59.454 185.339,69.964 180.388,81.667C175.271,93.769 172.673,106.636 172.673,119.915C172.673,133.194 175.271,146.061 180.388,158.163C185.339,169.866 192.426,180.376 201.46,189.41C210.494,198.444 221.004,205.531 232.707,210.482C244.809,215.599 257.676,218.197 270.955,218.197C279.045,218.197 286.981,217.234 294.685,215.323C299.628,214.095 304.473,212.484 309.203,210.482C311.773,209.396 314.285,208.204 316.736,206.913C317.541,206.491 318.343,206.056 319.133,205.606C324.811,202.416 330.145,198.665 335.1,194.385C336.936,192.798 338.721,191.139 340.45,189.41C349.484,180.376 356.571,169.866 361.522,158.163C366.639,146.061 369.237,133.194 369.237,119.915C369.237,106.636 366.639,93.769 361.522,81.667C356.571,69.964 349.484,59.454 340.45,50.42C338.721,48.691 336.936,47.032 335.1,45.445C333.264,47.028 331.475,48.691 329.746,50.42C320.712,59.454 313.625,69.964 308.678,81.667C303.557,93.769 300.963,106.636 300.963,119.915C300.963,133.194 303.557,146.061 308.678,158.163C309.728,160.654 310.877,163.091 312.121,165.467C312.133,165.487 312.145,165.51 312.157,165.53C312.323,165.846 312.489,166.162 312.658,166.478C312.666,166.482 312.666,166.49 312.67,166.498C313.321,167.888 313.685,169.44 313.685,171.074C313.685,177.044 308.844,181.885 302.87,181.885C298.776,181.885 295.214,179.611 293.382,176.255C293.37,176.239 293.362,176.223 293.354,176.208C293.275,176.062 293.2,175.912 293.125,175.762C284.324,159.088 279.345,140.085 279.345,119.917C279.345,89.424 290.728,61.592 309.475,40.433C311.785,37.823 314.209,35.32 316.736,32.919C322.366,27.577 328.514,22.776 335.1,18.602C338.014,20.45 340.845,22.42 343.581,24.509C347.024,27.135 350.325,29.942 353.46,32.919C376.491,54.765 390.855,85.665 390.855,119.917L390.857,119.916Z" style="fill:white;fill-rule:nonzero;"/>
                        <circle cx="239.041" cy="171.076" r="10.811" style="fill:white;"/>
                        <path d="M281.796,171.538C281.53,177.502 276.479,182.122 270.515,181.857C266.523,181.679 263.133,179.358 261.411,176.053C261.4,176.041 261.393,176.025 261.393,176.013C261.281,175.787 261.172,175.561 261.068,175.335C261.057,175.311 261.046,175.291 261.036,175.266C253.006,158.222 248.885,139.032 249.782,118.903C250.048,112.939 255.099,108.319 261.067,108.585C266.94,108.847 271.508,113.746 271.39,119.59C271.394,119.594 271.393,119.602 271.39,119.606L271.39,119.61C271.393,119.618 271.393,119.622 271.389,119.63L271.368,120.103C271.372,120.111 271.371,120.115 271.368,120.123L271.368,120.127C271.368,120.127 271.371,120.139 271.368,120.143C270.817,133.311 272.84,146.191 277.385,158.42C278.387,161.117 279.499,163.755 280.724,166.335C280.771,166.432 280.818,166.533 280.865,166.63C281.537,168.126 281.878,169.793 281.8,171.541L281.796,171.538Z" style="fill:white;fill-rule:nonzero;"/>
                    </g>
                    <g>
                        <path d="M380.596,1.632L377.966,1.632L377.966,8.766L375.852,8.766L375.852,1.632L373.27,1.632L373.27,0L380.596,0L380.596,1.632Z" style="fill:white;fill-rule:nonzero;"/>
                        <path d="M384.264,0L386.22,6.099L388.171,0L390.952,0L390.952,8.766L388.833,8.766L388.833,6.719L389.038,2.529L386.919,8.766L385.522,8.766L383.397,2.523L383.6,6.719L383.6,8.766L381.487,8.766L381.487,0L384.264,0Z" style="fill:white;fill-rule:nonzero;"/>
                    </g>
                </g>
            </g>
        </g>
    </g>
</svg>
